<?xml version="1.0" standalone="no"?>
<!DOCTYPE svg PUBLIC "-//W3C//DTD SVG 20010904//EN"
 "http://www.w3.org/TR/2001/REC-SVG-20010904/DTD/svg10.dtd">
<svg version="1.0" xmlns="http://www.w3.org/2000/svg"
 width="600.000000pt" height="600.000000pt" viewBox="0 0 600.000000 600.000000"
 preserveAspectRatio="xMidYMid meet">
<metadata>
Created by potrace 1.14, written by Peter Selinger 2001-2017
</metadata>
<g transform="translate(0.000000,600.000000) scale(0.100000,-0.100000)"
fill="#000000" stroke="none">
<path d="M2824 5397 c-16 -18 -65 -90 -109 -160 -44 -70 -97 -153 -118 -184
-46 -72 -51 -82 -43 -90 13 -14 76 66 173 222 154 246 153 245 134 245 -5 0
-22 -15 -37 -33z"/>
<path d="M2972 5279 c-9 -17 -54 -90 -99 -162 -46 -73 -102 -163 -125 -200
-68 -110 -68 -110 -104 -97 -46 16 -556 9 -562 -7 -2 -7 -15 -13 -29 -13 -21
0 -10 -14 81 -104 58 -58 106 -107 106 -110 0 -16 272 -292 283 -288 5 1 6 -2
2 -8 -4 -6 8 -24 26 -41 l32 -30 -1 -396 c-1 -218 -4 -398 -7 -401 -3 -3 -13
2 -23 11 -17 15 -57 17 -376 17 l-356 0 -48 42 c-26 23 -95 87 -153 143 -298
283 -352 330 -383 331 l-31 2 3 -318 3 -319 -23 -12 c-33 -17 -416 -258 -461
-290 l-38 -27 36 -12 c19 -6 35 -15 35 -19 0 -4 18 -16 40 -26 22 -10 40 -23
40 -28 0 -6 3 -8 6 -4 4 3 36 -14 71 -38 36 -25 69 -42 74 -39 5 3 9 -1 9 -9
0 -8 18 -22 40 -32 22 -10 40 -21 40 -25 0 -7 78 -53 82 -48 2 2 14 -7 27 -19
l23 -21 -1 -297 c-1 -163 -4 -308 -8 -322 l-6 -26 39 28 c21 16 53 41 69 57
17 15 62 55 102 89 39 33 74 67 77 75 3 8 12 14 21 14 8 0 15 4 15 8 0 10 16
27 111 116 41 38 97 91 124 117 l51 49 389 0 390 0 -3 -335 c-2 -192 1 -355 6
-381 l10 -46 -62 -66 c-33 -37 -151 -164 -260 -282 -110 -118 -210 -227 -223
-241 l-24 -27 327 0 c313 -1 328 -2 345 -21 11 -11 19 -27 19 -36 0 -8 5 -15
10 -15 6 0 10 -6 10 -13 0 -7 9 -23 20 -35 11 -12 20 -28 20 -37 0 -8 5 -15
10 -15 6 0 10 -7 10 -15 0 -8 5 -15 10 -15 6 0 10 -7 10 -15 0 -8 5 -15 10
-15 6 0 10 -6 10 -13 0 -7 9 -23 20 -35 11 -12 20 -27 20 -34 0 -8 9 -20 20
-28 11 -8 20 -22 20 -31 0 -9 7 -20 16 -23 8 -3 13 -10 10 -14 -3 -5 2 -18 12
-28 9 -11 18 -26 20 -34 2 -8 7 -21 12 -30 8 -13 10 -13 15 2 4 10 15 18 26
18 12 0 30 21 54 63 20 34 50 83 68 109 96 141 178 281 173 295 -4 8 3 13 17
13 12 1 156 0 320 0 l297 -1 0 30 c0 24 -20 51 -102 139 -234 250 -394 425
-405 445 -9 16 -12 117 -13 375 0 224 -4 360 -10 373 -11 19 -3 19 383 19
l393 0 56 -55 c31 -30 59 -55 62 -55 3 0 42 -36 87 -80 44 -44 82 -80 84 -80
2 0 26 -22 53 -50 27 -27 53 -50 57 -50 4 0 47 -42 96 -92 51 -53 89 -86 89
-76 0 9 7 19 16 22 13 5 15 44 13 313 l-1 308 58 37 c33 21 117 74 188 120 70
45 151 94 180 109 74 39 79 54 34 92 -20 18 -120 84 -223 147 -103 63 -198
125 -211 137 l-24 22 0 283 c-1 266 -2 284 -20 307 l-20 23 -173 -163 c-329
-312 -408 -382 -420 -370 -8 8 -123 11 -369 11 -343 0 -358 1 -368 19 -6 13
-10 152 -10 384 l0 365 32 27 c17 14 50 50 72 78 23 29 71 82 108 119 36 37
69 76 73 87 3 11 14 23 24 26 10 3 44 34 75 68 31 34 74 80 96 102 46 45 50
68 18 89 -19 12 -77 14 -305 14 -155 0 -287 3 -293 7 -5 3 -17 20 -26 37 -9
17 -57 94 -108 172 -50 77 -105 163 -121 190 -19 31 -42 53 -63 62 -32 13 -34
13 -50 -17z"/>
<path d="M1911 4914 c-25 -32 -35 -98 -27 -177 9 -87 22 -106 201 -291 33 -35
92 -98 130 -141 39 -43 94 -104 123 -134 l52 -56 -2 -262 c-2 -202 0 -264 9
-268 7 -2 20 9 28 25 12 23 15 74 15 262 0 203 -2 237 -17 265 -10 17 -117
138 -238 268 -121 130 -228 253 -237 273 -27 59 -32 123 -14 192 19 72 19 70
7 70 -5 0 -19 -12 -30 -26z"/>
<path d="M1066 4071 c-38 -42 -46 -103 -46 -361 0 -221 -2 -250 -17 -269 -21
-25 -88 -71 -195 -135 -42 -25 -79 -50 -83 -56 -11 -17 27 2 93 47 35 24 69
43 76 43 7 0 23 11 35 24 12 13 42 31 66 40 71 28 75 43 75 328 0 188 3 256
15 294 8 27 15 52 15 57 0 13 -17 7 -34 -12z"/>
<path d="M4585 4048 c-27 -22 -112 -99 -188 -171 -76 -72 -151 -140 -166 -152
-32 -24 -111 -109 -111 -120 0 -13 53 25 105 75 28 26 84 79 125 117 110 103
252 235 273 256 38 37 10 34 -38 -5z"/>
<path d="M640 3201 c-76 -53 -101 -100 -102 -194 0 -80 19 -133 64 -173 20
-18 293 -195 353 -228 11 -6 30 -20 43 -31 22 -19 22 -23 22 -270 0 -193 3
-263 15 -301 24 -83 75 -116 180 -116 53 0 135 22 135 36 0 3 -39 4 -87 4 -98
-2 -133 9 -167 55 -20 27 -21 44 -26 302 -5 258 -6 275 -26 302 -11 15 -90 72
-175 125 -85 54 -175 112 -200 128 -78 50 -107 149 -74 254 14 43 29 66 68
101 61 55 51 58 -23 6z"/>
<path d="M1879 2420 c-24 -19 -24 -19 238 -20 173 0 264 -4 268 -11 4 -5 6
-117 6 -247 -2 -196 -4 -241 -17 -261 -21 -31 -156 -179 -407 -444 -57 -60
-71 -85 -85 -152 -16 -75 1 -163 38 -202 36 -40 82 -46 353 -50 143 -2 266 -7
275 -12 10 -5 55 -69 101 -143 196 -310 200 -315 297 -326 58 -6 148 6 170 23
17 13 8 14 -71 13 -103 -1 -160 16 -192 60 -11 15 -66 101 -123 192 -56 91
-116 179 -133 197 l-29 31 -272 4 c-189 3 -281 8 -304 17 -58 23 -82 102 -62
206 14 74 -1 56 317 398 100 107 185 206 188 219 3 13 5 131 3 262 -3 222 -4
239 -22 252 -16 11 -69 14 -267 14 -231 0 -248 -1 -270 -20z"/>
<path d="M3621 2431 c-35 -22 12 -28 236 -30 130 -1 243 -5 250 -9 13 -8 76
-65 209 -191 215 -202 290 -268 324 -286 62 -32 171 -36 233 -10 35 15 15 21
-66 21 -64 0 -92 5 -127 22 -27 13 -146 115 -291 250 -135 126 -253 232 -263
235 -26 10 -489 8 -505 -2z"/>
<path d="M3710 1071 c-242 -6 -287 -11 -275 -31 3 -5 110 -9 238 -9 227 0 361
12 362 34 0 12 -9 12 -325 6z"/>
</g>
</svg>
